<?xml version="1.0" encoding="UTF-8" standalone="no"?>
<svg width="161px" height="47px" viewBox="0 0 161 47" version="1.1" xmlns="http://www.w3.org/2000/svg" xmlns:xlink="http://www.w3.org/1999/xlink">
    <!-- Generator: Sketch 3.6.1 (26313) - http://www.bohemiancoding.com/sketch -->
    <title>Group 6</title>
    <desc>Created with Sketch.</desc>
    <defs>
        <linearGradient x1="50.0012509%" y1="100.270574%" x2="50.0012509%" y2="10.131036%" id="linearGradient-1">
            <stop stop-color="#1A1A1A" stop-opacity="0.1" offset="0%"></stop>
            <stop stop-color="#212121" stop-opacity="0.1506" offset="12.35%"></stop>
            <stop stop-color="#353535" stop-opacity="0.2265" offset="30.85%"></stop>
            <stop stop-color="#575757" stop-opacity="0.3181" offset="53.21%"></stop>
            <stop stop-color="#858585" stop-opacity="0.4212" offset="78.34%"></stop>
            <stop stop-color="#B3B3B3" stop-opacity="0.51" offset="100%"></stop>
        </linearGradient>
    </defs>
    <g id="Page-1" stroke="none" stroke-width="1" fill="none" fill-rule="evenodd">
        <g id="desktop-copy" transform="translate(-586.000000, -442.000000)">
            <g id="Group-6" transform="translate(586.000000, 442.000000)">
                <path d="M160.702654,41.676504 C160.702654,44.2417341 158.633853,46.319619 156.075009,46.319619 L4.63368051,46.319619 C2.07604336,46.319619 0,44.2417341 0,41.676504 L0,4.64917659 C0,2.08515873 2.07604336,0 4.63368051,0 L156.073802,0 C158.633853,0 160.701447,2.08515873 160.701447,4.64917659 L160.702654,41.676504 L160.702654,41.676504 L160.702654,41.676504 Z" id="Shape" fill="#FFFFFF"></path>
                <path d="M160.702654,41.676504 C160.702654,44.2417341 158.633853,46.319619 156.075009,46.319619 L4.63368051,46.319619 C2.07604336,46.319619 0,44.2417341 0,41.676504 L0,4.64917659 C0,2.08515873 2.07604336,0 4.63368051,0 L156.073802,0 C158.633853,0 160.701447,2.08515873 160.701447,4.64917659 L160.702654,41.676504 L160.702654,41.676504 L160.702654,41.676504 Z" id="Shape" fill="#000000"></path>
                <path d="M73.9980786,0.0220213584 L105.76999,46.4219039 L155.114644,46.4219039 C158.257677,46.4219039 160.034629,45.0606003 160.822557,42.1159357 L160.822557,5.66319076 C160.822556,2.02757913 158.931375,-0.250483472 155.114645,0.0220213584 L73.9980786,0.0220213584 Z" id="Shape" fill="url(#linearGradient-1)"></path>
                <g id="Group-2" transform="translate(13.454196, 5.222222)" fill="#FFFFFF">
                    <path d="M21.4154481,17.2698889 C21.3804451,13.3626409 24.6007263,11.461752 24.7479805,11.373254 C22.9242006,8.70255357 20.097402,8.33765079 19.1040394,8.30855556 C16.7298665,8.05760913 14.4269068,9.73543452 13.2174908,9.73543452 C11.9839348,9.73543452 10.1215308,8.33280159 8.11428658,8.37401984 C5.53130239,8.41402579 3.11488448,9.91606746 1.78959633,12.2485357 C-0.945470101,17.0043948 1.0943632,23.9933135 3.71476445,27.8375218 C5.02556857,29.7214385 6.55725406,31.8223571 8.5620843,31.7484067 C10.5234625,31.6683948 11.2561127,30.4936746 13.6230435,30.4936746 C15.9682483,30.4936746 16.6562394,31.7484067 18.7009007,31.701127 C20.8059121,31.6683948 22.1312003,29.8099365 23.3961383,27.9102599 C24.9109258,25.7535754 25.5192548,23.6271984 25.5433948,23.5180913 C25.4951147,23.501119 21.4564862,21.9517976 21.4154481,17.2698889 L21.4154481,17.2698889 Z" id="Shape"></path>
                    <path d="M17.5530419,5.77969444 C18.6079616,4.45464881 19.3297488,2.65195635 19.1293864,0.822593254 C17.602529,0.890482143 15.6930519,1.88335714 14.5934731,3.17930754 C13.6206295,4.32129563 12.7515881,6.19308929 12.9760905,7.95335119 C14.6912402,8.08185516 16.4522561,7.08413095 17.5530419,5.77969444 L17.5530419,5.77969444 Z" id="Shape"></path>
                    <g id="Group" transform="translate(35.744975, 14.640873)">
                        <path d="M14.0796778,16.8371905 L11.3385764,16.8371905 L9.83706594,12.0983036 L4.61798948,12.0983036 L3.18769216,16.8371905 L0.519010841,16.8371905 L5.69101422,0.703880952 L8.8847414,0.703880952 L14.0796778,16.8371905 L14.0796778,16.8371905 Z M9.38444021,10.110129 L8.02656301,5.89738095 C7.88292977,5.46701389 7.61256133,4.45352976 7.21666469,2.85814087 L7.16838461,2.85814087 C7.00906036,3.54430357 6.75438294,4.5577877 6.40555938,5.89738095 L5.07061522,10.110129 L9.38444021,10.110129 L9.38444021,10.110129 Z" id="Shape"></path>
                        <path d="M27.3542853,10.8775159 C27.3542853,12.8559921 26.8195835,14.4198611 25.7489727,15.5679107 C24.7906132,16.589881 23.5993022,17.1002599 22.1786609,17.1002599 C20.6445614,17.1002599 19.5413617,16.5510873 18.8714756,15.4503175 L18.8714756,21.554256 L16.2981474,21.554256 L16.2981474,9.02754365 C16.2981474,7.78493452 16.2655584,6.51080556 16.2027943,5.20394444 L18.4659229,5.20394444 L18.6095562,7.04785516 L18.6578362,7.04785516 C19.5160146,5.65855754 20.8183697,4.96390873 22.5661086,4.96390873 C23.9324348,4.96390873 25.0730516,5.50580754 25.9855451,6.59081746 C26.8968316,7.67825198 27.3542853,9.10634325 27.3542853,10.8775159 L27.3542853,10.8775159 Z M24.7326771,10.9720754 C24.7326771,9.83978571 24.4792067,8.90631349 23.9698518,8.17044643 C23.4134239,7.40548413 22.6662897,7.02239683 21.7296562,7.02239683 C21.0947732,7.02239683 20.5178262,7.2357619 20.0024364,7.65643056 C19.4858396,8.08073611 19.147879,8.63475794 18.9897618,9.32092063 C18.9100996,9.64096825 18.8702686,9.9016131 18.8702686,10.1077044 L18.8702686,12.0485992 C18.8702686,12.8935734 19.128567,13.607619 19.6451638,14.1919484 C20.1617607,14.7738532 20.8328538,15.0660179 21.6584431,15.0660179 C22.6276657,15.0660179 23.3820419,14.6889921 23.9215718,13.941002 C24.4623086,13.1905873 24.7326771,12.2013492 24.7326771,10.9720754 L24.7326771,10.9720754 Z" id="Shape"></path>
                        <path d="M40.6759659,10.8775159 C40.6759659,12.8559921 40.141264,14.4198611 39.0706533,15.5679107 C38.1110867,16.589881 36.9209828,17.1002599 35.4991345,17.1002599 C33.965035,17.1002599 32.8618352,16.5510873 32.1919492,15.4503175 L32.1919492,21.554256 L29.618621,21.554256 L29.618621,9.02754365 C29.618621,7.78493452 29.5860319,6.51080556 29.5232678,5.20394444 L31.7863965,5.20394444 L31.9300297,7.04785516 L31.9783098,7.04785516 C32.8352812,5.65855754 34.1376363,4.96390873 35.8865821,4.96390873 C37.2517014,4.96390873 38.3923182,5.50580754 39.3072257,6.59081746 C40.2173052,7.67825198 40.6759659,9.10634325 40.6759659,10.8775159 L40.6759659,10.8775159 Z M38.0531507,10.9720754 C38.0531507,9.83978571 37.7984732,8.90631349 37.2891184,8.17044643 C36.7326905,7.40548413 35.9879703,7.02239683 35.0513368,7.02239683 C34.4164538,7.02239683 33.8395068,7.2357619 33.321703,7.65643056 C32.8051062,8.08073611 32.4683526,8.63475794 32.3102354,9.32092063 C32.2317802,9.64096825 32.1895352,9.9016131 32.1895352,10.1077044 L32.1895352,12.0485992 C32.1895352,12.8935734 32.4490406,13.607619 32.9632234,14.1919484 C33.4798202,14.7726409 34.1509133,15.0660179 34.9789167,15.0660179 C35.9493462,15.0660179 36.7037225,14.6889921 37.2420453,13.941002 C37.7827822,13.1905873 38.0531507,12.2013492 38.0531507,10.9720754 L38.0531507,10.9720754 Z" id="Shape"></path>
                        <path d="M55.57037,12.3116687 C55.57037,13.6852063 55.0923973,14.8017361 54.1424867,15.6636825 C53.097223,16.6044286 51.6379577,17.0760139 49.7671046,17.0760139 C48.0386778,17.0760139 46.6530396,16.7414187 45.6077759,16.0710159 L46.2028279,13.916756 C47.3313747,14.588371 48.5709657,14.9229663 49.9203939,14.9229663 C50.8908235,14.9229663 51.6451997,14.7023274 52.1835226,14.2646865 C52.7230524,13.8258333 52.9958349,13.2390794 52.9958349,12.5068492 C52.9958349,11.850994 52.7701255,11.3018214 52.3271558,10.8544821 C51.8817721,10.4083552 51.1455009,9.99253571 50.1111002,9.61066071 C47.2987856,8.55717063 45.8914214,7.01633532 45.8914214,4.98936706 C45.8914214,3.66553373 46.3887062,2.58173611 47.3808618,1.7343373 C48.3730174,0.888150794 49.6886495,0.46505754 51.3253442,0.46505754 C52.7870235,0.46505754 54.0048885,0.720853175 54.9716971,1.23123214 L54.325951,3.3382123 C53.4158715,2.84359325 52.3887129,2.59628373 51.239647,2.59628373 C50.3319816,2.59628373 49.6198504,2.82055952 49.1104956,3.26668651 C48.6820099,3.66553373 48.4647495,4.15166667 48.4647495,4.72872222 C48.4647495,5.36518056 48.7121849,5.89374405 49.2046417,6.30835119 C49.6319204,6.69022619 50.4116437,7.10604563 51.5389835,7.55217262 C52.9222077,8.11225595 53.9385034,8.76447421 54.5890774,9.51367659 C55.2444795,10.262879 55.57037,11.1975635 55.57037,12.3116687 L55.57037,12.3116687 Z" id="Shape"></path>
                        <path d="M64.1002529,7.14362698 L61.2637983,7.14362698 L61.2637983,12.7917401 C61.2637983,14.2283175 61.7634971,14.9447877 62.7653087,14.9447877 C63.2251764,14.9447877 63.6065891,14.905994 63.9083395,14.8247698 L63.9795527,16.7874861 C63.4726118,16.9778175 62.8051398,17.0735893 61.9783434,17.0735893 C60.9620478,17.0735893 60.1678405,16.7620278 59.5945146,16.1389048 C59.0236026,15.5157817 58.7363362,14.4719901 58.7363362,13.0026806 L58.7363362,7.13877778 L57.0465334,7.13877778 L57.0465334,5.19909524 L58.7363362,5.19909524 L58.7363362,3.06908135 L61.2637983,2.30290675 L61.2637983,5.19909524 L64.1002529,5.19909524 L64.1002529,7.14362698 L64.1002529,7.14362698 Z" id="Shape"></path>
                        <path d="M76.8727476,10.9247956 C76.8727476,12.7129405 76.3633927,14.1810377 75.3470971,15.3290873 C74.2837284,16.5110813 72.8691221,17.1002599 71.1056922,17.1002599 C69.4038195,17.1002599 68.0507703,16.5341151 67.0417166,15.4030377 C66.032663,14.2695357 65.5281362,12.8414444 65.5281362,11.1187639 C65.5281362,9.31607143 66.049561,7.8394881 67.0887897,6.69143849 C68.1304324,5.54217659 69.5329687,4.96754563 71.2963985,4.96754563 C72.9958573,4.96754563 74.3609765,5.53490278 75.3941702,6.66719246 C76.3814978,7.7655377 76.8727476,9.18393056 76.8727476,10.9247956 L76.8727476,10.9247956 Z M74.2052732,10.9841984 C74.2052732,9.91858532 73.9759429,9.00450992 73.5160751,8.23954762 C72.9765452,7.31577381 72.204064,6.8538869 71.2034594,6.8538869 C70.1726797,6.8538869 69.3820934,7.31577381 68.8437705,8.23954762 C68.3826958,9.00450992 68.1533654,9.93434524 68.1533654,11.0326905 C68.1533654,12.0995159 68.3826958,13.0160159 68.8437705,13.7785536 C69.4001984,14.7023274 70.1763007,15.1642143 71.1817333,15.1642143 C72.1654399,15.1642143 72.9367142,14.692629 73.4943491,13.7555198 C73.9674938,12.972373 74.2052732,12.0522361 74.2052732,10.9841984 L74.2052732,10.9841984 Z" id="Shape"></path>
                        <path d="M85.2408921,7.47700992 C84.9862147,7.42973016 84.7134323,7.40548413 84.4297868,7.40548413 C83.5245353,7.40548413 82.8244742,7.74735317 82.3320174,8.43594048 C81.9047387,9.04209127 81.6898924,9.80826587 81.6898924,10.733252 L81.6898924,16.8371905 L79.1165642,16.8371905 L79.1165642,8.86751984 C79.1165642,7.52792659 79.0912171,6.30592659 79.0417301,5.20515675 L81.2831327,5.20515675 L81.3772789,7.43094246 L81.448492,7.43094246 C81.7212744,6.66598016 82.1485531,6.04891865 82.7351561,5.58703175 C83.308482,5.1712123 83.927674,4.96390873 84.5951461,4.96390873 C84.8329255,4.96390873 85.0477718,4.98088095 85.2384781,5.01118849 L85.2408921,7.47700992 L85.2408921,7.47700992 L85.2408921,7.47700992 Z" id="Shape"></path>
                        <path d="M96.7496558,10.4701825 C96.7496558,10.9332817 96.7194807,11.3236429 96.6555096,11.6424782 L88.9355251,11.6424782 C88.9644931,12.7917401 89.3386638,13.671871 90.0556229,14.2780218 C90.706197,14.8187083 91.5474773,15.0902639 92.580671,15.0902639 C93.7237019,15.0902639 94.7665515,14.9084187 95.7043921,14.5410913 L96.1075307,16.3340853 C95.0115729,16.8141567 93.7176668,17.0529802 92.2246054,17.0529802 C90.4285865,17.0529802 89.0188082,16.5219921 87.9928566,15.4624405 C86.9693189,14.4016766 86.4563431,12.9760099 86.4563431,11.1902897 C86.4563431,9.43730159 86.9331089,7.97647817 87.8878474,6.81145635 C88.887245,5.56763492 90.2378802,4.94572421 91.937339,4.94572421 C93.6066227,4.94572421 94.8703537,5.56763492 95.7285321,6.81145635 C96.4080742,7.79705754 96.7496558,9.01905754 96.7496558,10.4701825 L96.7496558,10.4701825 Z M94.2958208,9.79977976 C94.3139258,9.03239286 94.1449455,8.37168849 93.796122,7.81281746 C93.3507383,7.09271032 92.6651611,6.73386905 91.7466327,6.73386905 C90.9053523,6.73386905 90.2197752,7.08422421 89.6983503,7.78735913 C89.2698646,8.34623016 89.0151872,9.01784524 88.9367321,9.79735516 L94.2958208,9.79977976 L94.2958208,9.79977976 L94.2958208,9.79977976 Z" id="Shape"></path>
                    </g>
                    <g id="Group" transform="translate(36.951977, 0.559524)">
                        <path d="M6.93664024,9.0110377 L5.58841905,9.0110377 L4.85094086,6.68220635 L2.2860617,6.68220635 L1.58237956,9.0110377 L0.270368438,9.0110377 L2.81231456,1.08137302 L4.3814171,1.08137302 L6.93664024,9.0110377 L6.93664024,9.0110377 Z M4.6288525,5.70509127 L3.96138042,3.63448016 C3.89137431,3.42232738 3.7622251,2.92892063 3.56306977,2.1409246 L3.53892973,2.1409246 C3.4568536,2.48158135 3.33977441,2.9762004 3.16355213,3.63448016 L2.50815006,5.70509127 L4.6288525,5.70509127 L4.6288525,5.70509127 Z" id="Shape"></path>
                        <path d="M13.2927125,3.29382341 L11.137007,9.0110377 L9.90707205,9.0110377 L7.82137267,3.29382341 L9.18045687,3.29382341 L10.1533005,6.31730357 C10.3174527,6.82283333 10.4574649,7.30532937 10.5624741,7.76357937 L10.5974772,7.76357937 C10.6916233,7.35260913 10.8316356,6.8701131 11.0066508,6.31730357 L11.9674244,3.29382341 L13.2927125,3.29382341 L13.2927125,3.29382341 Z" id="Shape"></path>
                        <path d="M17.881734,9.0110377 L17.7875878,8.35275794 L17.7525848,8.35275794 C17.3663441,8.88253373 16.8038812,9.14075397 16.0893361,9.14075397 C15.0706264,9.14075397 14.3440112,8.42307143 14.3440112,7.45807937 C14.3440112,6.04696032 15.5618762,5.31715476 17.6705086,5.31715476 L17.6705086,5.21168452 C17.6705086,4.45884524 17.272198,4.08181944 16.4876467,4.08181944 C15.9251838,4.08181944 15.432727,4.22365873 15.0006203,4.506125 L14.7435289,3.67084921 C15.2709887,3.34110317 15.9263908,3.17623016 16.7000791,3.17623016 C18.1871055,3.17623016 18.9378607,3.96422619 18.9378607,5.54143056 L18.9378607,7.64719841 C18.9378607,8.22425397 18.9620007,8.67159325 19.0199368,9.01225 L17.881734,9.0110377 L17.881734,9.0110377 L17.881734,9.0110377 Z M17.7055117,6.16334127 C16.2993544,6.16334127 15.5968793,6.50521032 15.5968793,7.31624008 C15.5968793,7.91632937 15.9601869,8.20970635 16.4635067,8.20970635 C17.1080457,8.20970635 17.7055117,7.7162996 17.7055117,7.04589683 L17.7055117,6.16334127 L17.7055117,6.16334127 Z" id="Shape"></path>
                        <path d="M21.7550032,2.35186508 C21.3337596,2.35186508 21.005455,2.02211905 21.005455,1.58690278 C21.005455,1.15168651 21.3446226,0.834063492 21.7791433,0.834063492 C22.212457,0.834063492 22.5636946,1.15168651 22.5516245,1.58690278 C22.5516245,2.04636508 22.224527,2.35186508 21.7550032,2.35186508 L21.7550032,2.35186508 Z M22.4116123,9.0110377 L21.1466743,9.0110377 L21.1466743,3.29382341 L22.4116123,3.29382341 L22.4116123,9.0110377 L22.4116123,9.0110377 Z" id="Shape"></path>
                        <path d="M25.923988,9.0110377 L24.65905,9.0110377 L24.65905,0.670402778 L25.923988,0.670402778 L25.923988,9.0110377 L25.923988,9.0110377 Z" id="Shape"></path>
                        <path d="M31.2999747,9.0110377 L31.2058286,8.35275794 L31.1708255,8.35275794 C30.7845849,8.88253373 30.222122,9.14075397 29.5075768,9.14075397 C28.4888672,9.14075397 27.762252,8.42307143 27.762252,7.45807937 C27.762252,6.04696032 28.980117,5.31715476 31.0887494,5.31715476 L31.0887494,5.21168452 C31.0887494,4.45884524 30.6904387,4.08181944 29.9058875,4.08181944 C29.3434245,4.08181944 28.8509677,4.22365873 28.418861,4.506125 L28.1605626,3.6696369 C28.6880225,3.33989087 29.3434245,3.17501786 30.1171128,3.17501786 C31.6041392,3.17501786 32.3548944,3.96301389 32.3548944,5.54021825 L32.3548944,7.64598611 C32.3548944,8.22304167 32.3802415,8.67038095 32.4357636,9.0110377 L31.2999747,9.0110377 L31.2999747,9.0110377 Z M31.1237524,6.16334127 C29.7175952,6.16334127 29.01512,6.50521032 29.01512,7.31624008 C29.01512,7.91632937 29.3784276,8.20970635 29.8817474,8.20970635 C30.5262865,8.20970635 31.1237524,7.7162996 31.1237524,7.04589683 L31.1237524,6.16334127 L31.1237524,6.16334127 Z" id="Shape"></path>
                        <path d="M37.4798247,9.14075397 C36.6723404,9.14075397 36.0760815,8.79888492 35.6898408,8.12848214 L35.6644938,8.12848214 L35.5920737,9.0110377 L34.5142209,9.0110377 C34.549224,8.5527877 34.561294,8.03392262 34.561294,7.47020238 L34.561294,0.670402778 L35.827439,0.670402778 L35.827439,4.13031151 L35.8515791,4.13031151 C36.2269567,3.49506548 36.8340787,3.17744246 37.66691,3.17744246 C39.0380643,3.17744246 39.9988378,4.3545873 39.9988378,6.07120635 C39.9988378,7.84601587 38.9318481,9.14075397 37.4798247,9.14075397 L37.4798247,9.14075397 Z M37.2227333,4.17516667 C36.4949111,4.17516667 35.8286461,4.8104127 35.8286461,5.69296825 L35.8286461,6.69311706 C35.8286461,7.4811131 36.427319,8.12848214 37.2010073,8.12848214 C38.1485038,8.12848214 38.7121737,7.35260913 38.7121737,6.11727381 C38.7109667,4.964375 38.1243638,4.17516667 37.2227333,4.17516667 L37.2227333,4.17516667 Z" id="Shape"></path>
                        <path d="M43.1334219,9.0110377 L41.8696908,9.0110377 L41.8696908,0.670402778 L43.1334219,0.670402778 L43.1334219,9.0110377 L43.1334219,9.0110377 Z" id="Shape"></path>
                        <path d="M50.019368,6.45793056 L46.2221399,6.45793056 C46.2474869,7.54051587 46.9596181,8.15151587 48.0145378,8.15151587 C48.5770007,8.15151587 49.0923905,8.05695635 49.5486373,7.88117262 L49.7453786,8.76372817 C49.2070557,8.99891468 48.5745867,9.11650794 47.8371085,9.11650794 C46.0555736,9.11650794 45.0018609,7.98664286 45.0018609,6.23486706 C45.0018609,4.48187897 46.0809207,3.16410714 47.6946823,3.16410714 C49.1467056,3.16410714 50.0616131,4.24669246 50.0616131,5.8820873 C50.0664411,6.10515079 50.0555781,6.30518056 50.019368,6.45793056 L50.019368,6.45793056 Z M48.8594392,5.55234127 C48.8594392,4.66978571 48.4140554,4.0466627 47.6053641,4.0466627 C46.878749,4.0466627 46.30663,4.68190873 46.2221399,5.55234127 L48.8594392,5.55234127 L48.8594392,5.55234127 Z" id="Shape"></path>
                        <path d="M57.6862445,9.14075397 C56.0229958,9.14075397 54.945143,7.89329563 54.945143,6.19971032 C54.945143,4.43459921 56.0459288,3.17623016 57.7815976,3.17623016 C59.4194993,3.17623016 60.5226991,4.36428571 60.5226991,6.1063631 C60.5226991,7.89329563 59.3857032,9.14075397 57.6862445,9.14075397 L57.6862445,9.14075397 Z M57.7345245,4.10485317 C56.8208241,4.10485317 56.2354281,4.9631627 56.2354281,6.16334127 C56.2354281,7.34048611 56.8328941,8.19879563 57.7224545,8.19879563 C58.612015,8.19879563 59.2082739,7.28108333 59.2082739,6.13909524 C59.2094809,4.97528571 58.624085,4.10485317 57.7345245,4.10485317 L57.7345245,4.10485317 Z" id="Shape"></path>
                        <path d="M67.3229481,9.0110377 L66.059217,9.0110377 L66.059217,5.728125 C66.059217,4.71706548 65.6729764,4.21032341 64.9113582,4.21032341 C64.16181,4.21032341 63.6452131,4.85769246 63.6452131,5.61053175 L63.6452131,9.0110377 L62.3814821,9.0110377 L62.3814821,4.92800595 C62.3814821,4.42247619 62.3682051,3.88057738 62.334409,3.29261111 L63.4472648,3.29261111 L63.5064079,4.17516667 L63.541411,4.17516667 C63.8793715,3.56416667 64.5721906,3.17501786 65.3446719,3.17501786 C66.5383968,3.17501786 67.3229481,4.09273016 67.3229481,5.58628571 L67.3229481,9.0110377 L67.3229481,9.0110377 L67.3229481,9.0110377 Z" id="Shape"></path>
                        <path d="M75.5993605,4.24669246 L74.2076872,4.24669246 L74.2076872,7.0228631 C74.2076872,7.72963492 74.4527086,8.08241468 74.9439584,8.08241468 C75.1672538,8.08241468 75.3555461,8.05816865 75.5064213,8.0230119 L75.5414244,8.98800397 C75.295196,9.08256349 74.9656845,9.12984325 74.5589248,9.12984325 C73.5619412,9.12984325 72.9668892,8.57703373 72.9668892,7.12954563 L72.9668892,4.24669246 L72.1364719,4.24669246 L72.1364719,3.29382341 L72.9668892,3.29382341 L72.9668892,2.24639484 L74.2076872,1.86936905 L74.2076872,3.29261111 L75.5993605,3.29261111 L75.5993605,4.24669246 L75.5993605,4.24669246 Z" id="Shape"></path>
                        <path d="M82.2982213,9.0110377 L81.0320763,9.0110377 L81.0320763,5.75237103 C81.0320763,4.72918849 80.6458357,4.21153571 79.8842174,4.21153571 C79.2288154,4.21153571 78.6204864,4.658875 78.6204864,5.56446429 L78.6204864,9.0110377 L77.3543413,9.0110377 L77.3543413,0.670402778 L78.6204864,0.670402778 L78.6204864,4.10485317 L78.6446264,4.10485317 C79.0429371,3.48173016 79.61747,3.17501786 80.3549482,3.17501786 C81.5607431,3.17501786 82.2982213,4.11576389 82.2982213,5.61053175 L82.2982213,9.0110377 L82.2982213,9.0110377 Z" id="Shape"></path>
                        <path d="M88.7617168,6.45793056 L84.9656957,6.45793056 C84.9898357,7.54051587 85.7019669,8.15151587 86.7568866,8.15151587 C87.3205565,8.15151587 87.8347393,8.05695635 88.2909861,7.88117262 L88.4889344,8.76372817 C87.9506115,8.99891468 87.3169355,9.11650794 86.5794573,9.11650794 C84.7979224,9.11650794 83.7442097,7.98664286 83.7442097,6.23486706 C83.7442097,4.48187897 84.8232694,3.16410714 86.4370311,3.16410714 C87.8890544,3.16410714 88.8039619,4.24669246 88.8039619,5.8820873 C88.8087899,6.10515079 88.7967199,6.30518056 88.7617168,6.45793056 L88.7617168,6.45793056 Z M87.6017879,5.55234127 C87.6017879,4.66978571 87.1576112,4.0466627 86.3489199,4.0466627 C85.6210977,4.0466627 85.0489788,4.68190873 84.9656957,5.55234127 L87.6017879,5.55234127 L87.6017879,5.55234127 Z" id="Shape"></path>
                    </g>
                </g>
            </g>
        </g>
    </g>
</svg>