<svg width="24" height="25" viewBox="0 0 24 25" xmlns="http://www.w3.org/2000/svg" xmlns:sketch="http://www.bohemiancoding.com/sketch/ns"><title>icons/account_circle</title><desc>Created with Sketch Beta.</desc><path d="M12 .5c-6.624 0-12 5.376-12 12s5.376 12 12 12 12-5.376 12-12-5.376-12-12-12zm0 3.6c1.992 0 3.6 1.608 3.6 3.6s-1.608 3.6-3.6 3.6-3.6-1.608-3.6-3.6 1.608-3.6 3.6-3.6zm0 17.04c-3 0-5.652-1.536-7.2-3.864.036-2.388 4.8-3.696 7.2-3.696 2.388 0 7.164 1.308 7.2 3.696-1.548 2.328-4.2 3.864-7.2 3.864z" sketch:type="MSShapeGroup" fill="#fff"/></svg>