<svg width="101" height="28" viewBox="0 0 101 28" xmlns="http://www.w3.org/2000/svg" xmlns:sketch="http://www.bohemiancoding.com/sketch/ns"><title>logo/cursive</title><desc>Created with Sketch Beta.</desc><g sketch:type="MSLayerGroup" fill="#6A357F"><path d="M8.481 8.429h-2.041l-2.942 9.341c-.137.49.055.873.547.873.841 0 1.469-.466 2.203-1.772l.629.245c-.9 1.825-2.317 2.725-4.002 2.725-1.689 0-2.643-1.554-1.963-3.785l2.422-7.627h-1.959l.217-.709h1.961l1.17-3.811 3.19-.111-1.253 3.922h2.041l-.22.709" sketch:type="MSShapeGroup"/><path d="M18.012 19.841c-1.469 0-2.312-1.008-2.312-2.126 0-2.233 2.092-4.712 2.092-7.108 0-.653-.157-1.142-.814-1.142-1.333 0-2.343 1.334-4.166 4.63l-1.716 5.499h-3.13l5.599-17.968c0-.052-.027-.08-.162-.08l-1.501.028.221-.654 4.766-.11.052.029-3.366 10.831c1.849-3.241 3.515-3.922 4.931-3.922 1.469 0 2.338.844 2.338 2.424 0 2.94-2.365 5.936-2.365 7.409 0 .625.246 1.062.841 1.062.823 0 1.444-.518 2.184-1.772l.597.245c-.872 1.771-2.509 2.725-4.089 2.725" sketch:type="MSShapeGroup"/><path d="M27.081 14.013h-.299c-.352.98-.573 2.232-.573 3.185 0 1.334.356 2.015 1.501 2.015 1.796 0 2.939-.926 4.138-2.206l.377.463c-1.28 1.497-2.75 2.371-4.628 2.371-2.449 0-4.22-1.852-4.22-4.52 0-3.923 3.242-7.573 6.864-7.573 2.286 0 3.513 1.198 3.513 2.696 0 2.152-2.781 3.569-6.673 3.569zm2.997-5.556c-1.693 0-2.368 2.15-3.16 4.901h.352c3.434 0 3.839-1.634 3.839-3.513 0-1.061-.321-1.388-1.031-1.388z" sketch:type="MSShapeGroup"/><path d="M46.191 27.972h-3.162l3.632-11.453c-.599 1.607-1.986 2.586-3.432 2.586-2.12 0-3.592-1.662-3.592-3.866 0-3.866 3.181-8.198 7.624-8.198.759 0 1.744.491 1.932 1.388l.627-1.061 2.995-.518-6.624 21.122zm.905-20.279c-.461 0-.923.22-1.28.492-1.987 1.579-3.16 6.072-3.16 8.417 0 1.361.354 1.714 1.149 1.714 1.116 0 2.504-1.499 3.645-4.494l1.363-4.277c0-1.033-.711-1.852-1.717-1.852z" sketch:type="MSShapeGroup"/><path d="M64.036 16.98c-.19.573.053.872.682.872.847 0 1.337-.461 2.04-1.743l.661.217c-.985 1.907-2.406 2.752-3.847 2.752-1.52 0-2.994-1.171-2.095-3.922-1.854 3.214-3.295 3.922-4.743 3.922-1.468 0-2.5-.872-2.5-2.451 0-2.914 2.312-6.183 2.312-7.629 0-.624-.162-.869-.599-.869-.46 0-1.007.545-1.472 1.471l-.622-.215c.674-1.527 1.9-2.399 3.342-2.399 1.449 0 2.185.816 2.185 2.124 0 2.233-2.126 4.683-2.126 7.109 0 .652.189 1.144.848 1.144 1.309 0 2.31-1.335 4.141-4.629l1.713-5.503 3.185-.163-3.105 9.912" sketch:type="MSShapeGroup"/><path d="M71.633 19.078c-1.497 0-2.318-.981-2.318-2.315 0-2.561 2.511-5.583 2.511-7.598 0-.791-.303-.98-.769-.98-.406 0-1.142.679-1.518 1.47l-.66-.218c.627-1.388 1.935-2.451 3.708-2.451 1.39 0 2.179 1.063 2.179 2.179 0 2.723-2.614 5.909-2.614 7.652 0 .626.215 1.064.816 1.064.845 0 1.47-.465 2.206-1.772l.593.246c-.757 1.552-2.367 2.723-4.134 2.723" sketch:type="MSShapeGroup"/><path d="M87.021 19.078c-1.474 0-2.317-1.007-2.317-2.124 0-2.233 2.094-4.686 2.094-7.109 0-.654-.155-1.143-.817-1.143-1.335 0-2.339 1.335-4.164 4.657l-1.712 5.474h-3.139l2.972-9.368c.244-.763-.026-1.28-.576-1.28-.566 0-1.004.354-1.516 1.47l-.633-.218c.633-1.388 1.913-2.451 3.49-2.451 1.552 0 2.664 1.278 1.877 3.921 1.852-3.24 3.512-3.921 4.927-3.921 1.472 0 2.348.872 2.348 2.424 0 2.941-2.374 5.938-2.374 7.407 0 .626.247 1.064.847 1.064.815 0 1.445-.518 2.177-1.772l.601.246c-.878 1.771-2.508 2.723-4.085 2.723" sketch:type="MSShapeGroup"/><path d="M100.468 7.667h-2.042l-2.941 9.341c-.136.489.053.873.547.873.841 0 1.47-.465 2.203-1.772l.633.246c-.901 1.822-2.323 2.723-4.004 2.723-1.689 0-2.645-1.553-1.966-3.784l2.425-7.627h-1.961l.222-.709h1.954l1.173-3.813 3.189-.108-1.251 3.921h2.039l-.22.709" sketch:type="MSShapeGroup"/></g></svg>