<?xml version="1.0" encoding="UTF-8" standalone="no"?>
<svg width="68px" height="68px" viewBox="0 0 68 68" version="1.1" xmlns="http://www.w3.org/2000/svg" xmlns:xlink="http://www.w3.org/1999/xlink" xmlns:sketch="http://www.bohemiancoding.com/sketch/ns">
    <!-- Generator: Sketch 3.3.2 (12043) - http://www.bohemiancoding.com/sketch -->
    <title>menu_round</title>
    <desc>Created with Sketch.</desc>
    <defs></defs>
    <g id="Page-1" stroke="none" stroke-width="1" fill="none" fill-rule="evenodd" sketch:type="MSPage">
        <g id="noun_60838_cc" sketch:type="MSLayerGroup" transform="translate(2.000000, 2.000000)" fill="#FFFFFF">
            <g id="Group" sketch:type="MSShapeGroup">
                <path d="M32,0 C14.5415929,0 0.254867257,14.2648889 0.14159292,31.8008889 C0.0849557522,40.3484444 3.35575221,48.4124444 9.33097345,54.4853333 C15.3061947,60.5724444 23.2920354,63.9431111 31.8017699,64 L32.0141593,64 C49.4725664,64 63.759292,49.7351111 63.8725664,32.1991111 C63.9716814,14.5635556 49.7699115,0.113777778 32,0 Z M47.5752212,18.3751111 L16.4247788,18.3751111 C15.2920354,18.3751111 14.3716814,19.3837318 14.3716814,20.6251111 C14.3716814,21.8664904 15.2920354,22.8751111 16.4247788,22.8751111 L47.5752212,22.8751111 C48.7079646,22.8751111 49.6283186,21.8664904 49.6283186,20.6251111 C49.6283186,19.3837318 48.7079646,18.3751111 47.5752212,18.3751111 Z M47.5752212,29.9377778 L16.4247788,29.9377778 C15.2920354,29.9377778 14.3716814,30.9463985 14.3716814,32.1877778 C14.3716814,33.4291571 15.2920354,34.4377778 16.4247788,34.4377778 L47.5752212,34.4377778 C48.7079646,34.4377778 49.6283186,33.4291571 49.6283186,32.1877778 C49.6283186,30.9463985 48.7079646,29.9377778 47.5752212,29.9377778 Z M47.5752212,41.4862222 L16.4247788,41.4862222 C15.2920354,41.4862222 14.3716814,42.4948429 14.3716814,43.7362222 C14.3716814,44.9776015 15.2920354,45.9862222 16.4247788,45.9862222 L47.5752212,45.9862222 C48.7079646,45.9862222 49.6283186,44.9776015 49.6283186,43.7362222 C49.6283186,42.4948429 48.7079646,41.4862222 47.5752212,41.4862222 Z" id="Shape"></path>
            </g>
        </g>
    </g>
</svg>