<svg width="75" height="114" viewBox="0 0 75 114" xmlns="http://www.w3.org/2000/svg" xmlns:sketch="http://www.bohemiancoding.com/sketch/ns"><title>logo/q</title><desc>Created with Sketch Beta.</desc><g sketch:type="MSLayerGroup" fill="none"><path d="M74.398 113.741l-34.428-41.826s-14.203-.287-19.586-.633c-14.695-.954-20.793-10.874-20.35-24.636 0 0 .125-19.494.649-28.606.767-13.442 7.392-18.18 20.898-17.351 10.348.637 23.512 2.605 29.957 3.97 8.375 1.779 14.078 5.727 17.022 17.124 1.453 5.617 4.515 22.179 5.857 29.533 1.486 8.267.908 17.083-10.359 19.129l10.34 43.296" fill="#6A357F" sketch:type="MSShapeGroup"/><path d="M67.894 51.682c-.805-5.379-2.848-16.351-4.217-22.797-1.836-8.613-2.25-16.474-13.274-18.676-4.095-.823-20.611-3.645-30.949-3.382-10.185.264-10.805 8.539-11.033 14.34-.219 5.977-.147 21.272-.045 25.221.234 9.477 3.609 13.018 6.359 14.496 3.7 1.991 6.051 2.406 13.448 2.576 1.406.035 14.869.374 14.869.374l18.515 24.439-7.609-24.605c4.59.092 6.648-.066 8.359-.514 5.913-1.55 6.334-6.46 5.577-11.472zm-26.78 3.633c-5.281-.216-10.252-4.308-10.674-9.582-.429-5.278-1.625-20.665-1.855-23.821-.324-4.497 3.871-7.062 8.256-6.477 4.183.558 8.904 3.709 9.558 8.54.733 5.371 2.35 17.45 3.022 22.687.68 5.283-3.584 8.842-8.307 8.653z" fill="#fff" sketch:type="MSShapeGroup"/></g></svg>