<?xml version="1.0" encoding="UTF-8" standalone="no"?>
<svg width="28px" height="28px" viewBox="0 0 28 28" version="1.1" xmlns="http://www.w3.org/2000/svg" xmlns:xlink="http://www.w3.org/1999/xlink" xmlns:sketch="http://www.bohemiancoding.com/sketch/ns">
    <!-- Generator: Sketch 3.4.1 (15681) - http://www.bohemiancoding.com/sketch -->
    <title>HINDI + अ copy 5 + Oval 19 Copy</title>
    <desc>Created with Sketch.</desc>
    <defs></defs>
    <g id="Page-1" stroke="none" stroke-width="1" fill="none" fill-rule="evenodd" sketch:type="MSPage">
        <g id="HINDI-+-अ-copy-5-+-Oval-19-Copy" sketch:type="MSLayerGroup" transform="translate(-3.000000, -2.000000)">
            <g id="HINDI-+-अ-copy-5" transform="translate(0.200000, 0.000000)" sketch:type="MSShapeGroup">
                <rect id="Rectangle-1" x="0.8" y="0" width="32" height="32"></rect>
                <path d="M24.6,10.5494734 L18.2955665,10.5494734 L18.2955665,12.3026804 L20.0711823,12.3026804 L20.0711823,16.5332453 C19.6921182,16.7238113 19.173399,16.8762641 18.4352217,16.8762641 C17.8366995,16.8762641 17.2780788,16.7428679 16.7793103,16.4951321 C16.4600985,16.2664529 16.1009852,16.1140001 15.7618227,16.0377737 L15.7618227,15.9615473 C16.579803,15.5804154 17.1982759,14.6847552 17.1982759,13.5604159 C17.1982759,11.7500391 15.7817734,10.4923036 13.5672414,10.4923036 C12.0509852,10.4923036 10.8938424,11.1402279 10.2953202,11.9406051 L11.7916256,13.2745669 C12.1507389,12.7219256 12.6894089,12.3598502 13.5073892,12.3598502 C14.4450739,12.3598502 15.0236453,12.9315482 15.0236453,13.7509819 C15.0236453,14.7228684 14.4051724,15.3707928 13.1881773,15.3707928 L12.5098522,15.3707928 L12.5098522,17.2383395 L13.5871921,17.2383395 C14.9238916,17.2383395 15.6022167,17.7909808 15.6022167,18.7056975 C15.6022167,19.6204143 14.9238916,20.3255084 13.7068966,20.3255084 C12.4300493,20.3255084 11.5721675,19.5823011 11.153202,18.9534333 L9.55714286,20.3826782 C10.0958128,21.0496592 11.4125616,22.2121117 13.6869458,22.2121117 C16.2406404,22.2121117 17.8366995,20.6875838 17.8366995,18.6485277 L17.8366995,18.400792 C18.1758621,18.5532448 18.5549261,18.6485277 19.0137931,18.6485277 C19.4327586,18.6485277 19.7918719,18.5723013 20.0711823,18.4579618 L20.0711823,22.0681285 L22.385468,22.0681285 L22.385468,12.3026804 L24.6,12.3026804 L24.6,10.5494734 Z" id="अ-copy-5" fill="#444444"></path>
            </g>
            <circle id="Oval-19-Copy" stroke="#454545" sketch:type="MSShapeGroup" cx="17" cy="16" r="13"></circle>
        </g>
    </g>
</svg>