<?xml version="1.0" encoding="UTF-8" standalone="no"?>
<svg width="45px" height="40px" viewBox="0 0 45 40" version="1.1" xmlns="http://www.w3.org/2000/svg" xmlns:xlink="http://www.w3.org/1999/xlink" xmlns:sketch="http://www.bohemiancoding.com/sketch/ns">
    <!-- Generator: Sketch 3.3.3 (12081) - http://www.bohemiancoding.com/sketch -->
    <title>Slice 1</title>
    <desc>Created with Sketch.</desc>
    <defs></defs>
    <g id="Page-1" stroke="none" stroke-width="1" fill="none" fill-rule="evenodd" sketch:type="MSPage">
        <path d="M3.8364779,39.8529412 C1.62560221,39.8529412 -0.166666667,38.0697254 -0.166666667,35.8456246 L-0.166666667,4.15437543 C-0.166666667,1.94119558 1.62441657,0.147058824 3.8364779,0.147058824 L41.1635221,0.147058824 C43.3743978,0.147058824 45.1666667,1.93027458 45.1666667,4.15437543 L45.1666667,35.8456246 C45.1666667,38.0588044 43.3755834,39.8529412 41.1635221,39.8529412 L3.8364779,39.8529412 Z" id="Rectangle-170-Copy-44" fill="#68347F" sketch:type="MSShapeGroup"></path>
        <path d="M21.6548669,23.1699911 C21.6548669,23.1699911 17.5119888,23.0897689 15.9419668,22.9913243 C11.6554011,22.7224352 9.87729559,19.9159887 10.0065457,16.0233191 C10.0065457,16.0233191 10.0432124,10.5097594 10.1958375,7.93309084 C10.4211085,4.13064355 12.3529849,2.79175365 16.2896129,3.02575383 C19.3086568,3.20530952 23.1472014,3.76375438 25.0279736,4.14975467 C27.4722671,4.6513106 29.1321225,5.76820033 29.994019,8.99153608 C30.4188943,10.5802039 31.3087491,15.2642074 31.6978744,17.344209 C32.1351248,19.6822107 31.9634788,22.175546 28.6813513,22.7537686 L31.6974161,35 L21.6548669,23.1699911 Z" id="Fill-1-Copy-4" fill="#FFFFFF" sketch:type="MSShapeGroup"></path>
    </g>
</svg>