<?xml version="1.0" encoding="UTF-8" standalone="no"?>
<svg width="18px" height="18px" viewBox="0 0 18 18" version="1.1" xmlns="http://www.w3.org/2000/svg" xmlns:xlink="http://www.w3.org/1999/xlink" xmlns:sketch="http://www.bohemiancoding.com/sketch/ns">
    <!-- Generator: Sketch 3.4.1 (15681) - http://www.bohemiancoding.com/sketch -->
    <title>Rectangle 1 + Oval 19 + HINDI + अ copy 7</title>
    <desc>Created with Sketch.</desc>
    <defs></defs>
    <g id="Page-1" stroke="none" stroke-width="1" fill="none" fill-rule="evenodd" sketch:type="MSPage">
        <g id="Rectangle-1-+-Oval-19-+-HINDI-+-अ-copy-7" sketch:type="MSLayerGroup" transform="translate(-1.000000, -1.000000)">
            <rect id="Rectangle-1" sketch:type="MSShapeGroup" x="0" y="0" width="20" height="20"></rect>
            <g id="Oval-19-+-HINDI-+-अ-copy-7" transform="translate(2.000000, 2.000000)" sketch:type="MSShapeGroup">
                <circle id="Oval-19" stroke="#7D00B3" stroke-width="0.5" fill="#FFBF00" cx="8" cy="8" r="8"></circle>
                <g id="HINDI-+-अ-copy-6" transform="translate(3.289663, 4.363636)" fill="#7D00B3">
                    <path d="M9.55203426,0.336447969 L5.69176729,0.336447969 L5.69176729,1.40995399 L6.77899438,1.40995399 L6.77899438,4.0003707 C6.54688972,4.11705614 6.22927282,4.21040449 5.77727953,4.21040449 C5.41079849,4.21040449 5.06874952,4.12872468 4.76334865,3.97703362 C4.56789209,3.83701109 4.34800347,3.74366274 4.14033088,3.69698857 L4.14033088,3.65031439 C4.6411883,3.41694352 5.01988538,2.86852196 5.01988538,2.18007788 C5.01988538,1.07156622 4.15254691,0.301442338 2.79656706,0.301442338 C1.86814842,0.301442338 1.15961841,0.698172825 0.793137365,1.18825166 L1.70933997,2.00504972 C1.92922859,1.66666196 2.25906153,1.44495962 2.75991896,1.44495962 C3.33407259,1.44495962 3.68833759,1.79501594 3.68833759,2.29676332 C3.68833759,2.89185905 3.30964052,3.28858954 2.5644624,3.28858954 L2.14911722,3.28858954 L2.14911722,4.43210682 L2.80878309,4.43210682 C3.62725742,4.43210682 4.0426026,4.77049459 4.0426026,5.33058469 C4.0426026,5.89067479 3.62725742,6.32241091 2.8820793,6.32241091 C2.10025308,6.32241091 1.57496359,5.8673377 1.31842686,5.48227576 L0.341144081,6.35741654 C0.670977018,6.76581557 1.47723531,7.47759674 2.86986327,7.47759674 C4.43351571,7.47759674 5.41079849,6.54411324 5.41079849,5.29557906 L5.41079849,5.14388799 C5.61847108,5.23723634 5.85057574,5.29557906 6.13154454,5.29557906 C6.38808127,5.29557906 6.60796989,5.24890488 6.77899438,5.17889362 L6.77899438,7.38943441 L8.19605441,7.38943441 L8.19605441,1.40995399 L9.55203426,1.40995399 L9.55203426,0.336447969 Z" id="अ-copy-5"></path>
                </g>
            </g>
        </g>
    </g>
</svg>