<svg width="26" height="26" viewBox="0 0 26 26" xmlns="http://www.w3.org/2000/svg" xmlns:sketch="http://www.bohemiancoding.com/sketch/ns"><title>icons/search_circle</title><desc>Created with Sketch Beta.</desc><path d="M25.555 12.67c0 6.904-5.594 12.499-12.5 12.499-6.903 0-12.5-5.595-12.5-12.499 0-6.903 5.597-12.501 12.5-12.501 6.906 0 12.5 5.598 12.5 12.501zm-5.649 5.468l-3.511-3.72c.659-.92 1.05-2.043 1.05-3.258 0-3.097-2.521-5.621-5.619-5.621-3.099 0-5.619 2.524-5.619 5.621 0 3.098 2.52 5.618 5.619 5.618 1.081 0 2.088-.312 2.947-.843l3.52 3.732 1.613-1.529zm-11.361-6.978c0-1.808 1.475-3.278 3.281-3.278 1.811 0 3.281 1.47 3.281 3.278 0 1.806-1.47 3.275-3.281 3.275-1.806 0-3.281-1.469-3.281-3.275z" sketch:type="MSShapeGroup" fill="#fff"/></svg>